<svg width="24" height="24" viewBox="0 0 24 24" fill="none" xmlns="http://www.w3.org/2000/svg">
<g clip-path="url(#clip0_1302_17)">
<path d="M12 2L15.1035 8.72839L22.4616 9.60081L17.0216 14.6316L18.4656 21.8992L12 18.28L5.53437 21.8992L6.97843 14.6316L1.53839 9.60081L8.89651 8.72839L12 2Z" stroke="#f4f4f4" stroke-width="2" stroke-linejoin="round"/>
</g>
<path d="M16.7656 21.4897C13.5159 20.659 4.67135 12.8931 4.02821 9.9244C7.55473 9.67202 11.0406 6.87046 13.1663 4.87515C16.4566 8.25515 16.4972 10.8043 21.8073 11.7004C14.4121 15.3488 19.7343 20.8466 16.7656 21.4897Z" fill="#f4f4f4"/>
<path d="M16.7656 21.4897C13.5159 20.659 4.67135 12.8931 4.02821 9.9244C7.55473 9.67202 11.0406 6.87046 13.1663 4.87515C16.4566 8.25515 16.4972 10.8043 21.8073 11.7004C14.4121 15.3488 19.7343 20.8466 16.7656 21.4897Z" fill="#f4f4f4"/>
<path d="M16.7656 21.4897C13.5159 20.659 4.67135 12.8931 4.02821 9.9244C7.55473 9.67202 11.0406 6.87046 13.1663 4.87515C16.4566 8.25515 16.4972 10.8043 21.8073 11.7004C14.4121 15.3488 19.7343 20.8466 16.7656 21.4897Z" fill="#f4f4f4"/>
<path d="M20.5 10.5C19 13.5002 9.53757 20.5 6.5 20.5C7 17 5 13 3.5 10.5C7.5 8 10 8.5 12 3.5C14 11.5 20.5 7.46246 20.5 10.5Z" fill="#f4f4f4"/>
<path d="M20.5 10.5C19 13.5002 9.53757 20.5 6.5 20.5C7 17 5 13 3.5 10.5C7.5 8 10 8.5 12 3.5C14 11.5 20.5 7.46246 20.5 10.5Z" fill="#f4f4f4"/>
<path d="M20.5 10.5C19 13.5002 9.53757 20.5 6.5 20.5C7 17 5 13 3.5 10.5C7.5 8 10 8.5 12 3.5C14 11.5 20.5 7.46246 20.5 10.5Z" fill="#f4f4f4"/>
<defs>
<clipPath id="clip0_1302_17">
<rect width="24" height="24" fill="#f4f4f4"/>
</clipPath>
</defs>
</svg>
